<svg xmlns="http://www.w3.org/2000/svg" viewBox="0 0 126 126">
  <defs>
    <style>
      .st0 { fill: #fff; }
      .st1 { fill: #1a1a1a; }
    </style>
  </defs>
  <path class="st1" d="M106.7,22.2c-3.1,0-5.7,2.5-5.7,5.6s2.5,5.6,5.7,5.6,5.7-2.5,5.7-5.6-2.5-5.6-5.7-5.6ZM106.7,22.2c-3.1,0-5.7,2.5-5.7,5.6s2.5,5.6,5.7,5.6,5.7-2.5,5.7-5.6-2.5-5.6-5.7-5.6ZM120.4,11.5c-.2-.3-.3-.6-.5-.9-.1-.2-.3-.5-.5-.7-.1-.2-.3-.4-.5-.6,0,0,0,0,0,0-.2-.2-.3-.4-.5-.6-.1-.2-.3-.3-.5-.5,0,0,0,0,0,0,0,0,0-.1-.2-.1-.1-.1-.2-.2-.3-.3-.1-.1-.2-.2-.3-.3-.3-.3-.7-.6-1.1-.8-.1-.1-.3-.2-.4-.3-.2-.1-.5-.3-.7-.4l-.5-.3c-.4-.2-.7-.4-1.2-.5-.2,0-.4-.1-.6-.2-.3,0-.6-.2-.9-.2-.2,0-.4,0-.6-.1-.4,0-.9-.1-1.4-.2-.2,0-.4,0-.6,0-1.2,0-2.5-.2-4-.2-.2,0-.4,0-.6,0-1.3,0-2.8,0-4.5,0H25.9c-7.6,0-11.5,0-14.4,1.5l-.5.3c0,0-.1,0-.2,0-.2.1-.4.2-.6.3-.1,0-.2.2-.3.2-.2,0-.3.2-.5.3-.2.2-.5.3-.7.5-.1,0-.2.2-.3.3-.2.2-.4.3-.5.5-.2.2-.3.3-.5.5-.2.2-.4.4-.5.6,0,0,0,0,0,0-.2.2-.3.4-.5.6-.3.5-.7,1-.9,1.6v.3c-.6,1.1-1,2.3-1.2,3.8,0,.4,0,.9-.1,1.4,0,.2,0,.5,0,.7,0,.3,0,.5,0,.8,0,.3,0,.5,0,.8,0,1.8,0,4,0,6.6v74.2c0,1.7,0,3.2,0,4.5,0,.6,0,1.1,0,1.6,0,.3,0,.7,0,1,0,.2,0,.3,0,.5,0,.4,0,.8,0,1.1,0,.4,0,.8.1,1.2,0,.4,0,.8.2,1.2,0,.4.2.8.3,1.2,0,.1,0,.2.1.4,0,.2,0,.3.1.4.1.4.3.9.5,1.3,1.3,2.6,3.4,4.7,6,6,2.9,1.5,6.7,1.5,14.4,1.5h6.7c5.4,0,10.3,0,14.8,0,1.6,0,3.2,0,4.8,0,.4,0,.8,0,1.1,0h.5c1.1,0,2.2,0,3.2,0,2.2,0,4.3-.1,6.3-.2.5,0,.9,0,1.3,0,.2,0,.4,0,.5,0,.6,0,1.2,0,1.8-.1,1.2,0,2.3-.2,3.5-.3.6,0,1.1-.1,1.6-.2.5,0,1.1-.1,1.6-.2,1.1-.1,2.1-.3,3.1-.4.5,0,1-.2,1.5-.2,3.7-.7,7-1.6,10-2.8.3-.1.6-.2.9-.4.6-.2,1.2-.5,1.7-.8l.6-.3c.6-.3,1.3-.7,1.9-1,.6-.3,1.2-.7,1.8-1.1.4-.3.9-.5,1.3-.8,0,0,0,0,0,0,.2-.1.5-.3.7-.5.4-.3.9-.6,1.3-.9.4-.3.8-.6,1.2-.9.3-.3.7-.5,1-.8,3.3-2.6,6.4-5.7,9-9,.1-.2.3-.3.4-.5.7-.9,1.4-1.9,2.1-2.9.3-.4.6-.8.8-1.3,0,0,0-.1.1-.2.3-.5.6-1,.9-1.5.4-.7.8-1.3,1.1-2l.5-1c6.1-11.9,6.1-27.6,6.1-58.8v-6.7c0-7.6,0-11.5-1.5-14.4ZM52.5,110.7h-23.3c-.3,0-.5,0-.6,0-7.3-.1-13.2-6.1-13.4-13.4v-47.8c.2-7.3,6.1-13.2,13.4-13.4h23.9c20.6,0,37.3,16.7,37.3,37.3s-16.7,37.3-37.3,37.3ZM99.5,42.6c-8.2,0-14.8-6.6-14.8-14.7s6.6-14.7,14.8-14.7,14.8,6.6,14.8,14.7-6.6,14.8-14.8,14.7ZM101,27.9c0,3.1,2.5,5.6,5.7,5.6s5.7-2.5,5.7-5.6-2.5-5.6-5.7-5.6-5.7,2.5-5.7,5.6ZM106.7,22.2c-3.1,0-5.7,2.5-5.7,5.6s2.5,5.6,5.7,5.6,5.7-2.5,5.7-5.6-2.5-5.6-5.7-5.6ZM106.7,22.2c-3.1,0-5.7,2.5-5.7,5.6s2.5,5.6,5.7,5.6,5.7-2.5,5.7-5.6-2.5-5.6-5.7-5.6Z"/>
  <ellipse class="st0" cx="106.7" cy="27.9" rx="5.7" ry="5.6"/>
  <ellipse class="st1" cx="106.7" cy="27.9" rx="5.7" ry="5.6"/>
  <path class="st0" d="M73.8,120.7c1.1-.1,2.1-.3,3.1-.4-1,.2-2,.3-3.1.4Z"/>
</svg>
