<svg width="128" height="128" viewBox="0 0 128 128" fill="none" xmlns="http://www.w3.org/2000/svg">
<path d="M17 34.6C17 28.4394 17 25.3591 18.1989 23.0061C19.2535 20.9363 20.9363 19.2535 23.0061 18.1989C25.3591 17 28.4394 17 34.6 17H94.4C100.561 17 103.641 17 105.994 18.1989C108.064 19.2535 109.746 20.9363 110.801 23.0061C112 25.3591 112 28.4394 112 34.6V40C112 65.2024 112 77.8035 107.095 87.4296C102.781 95.8969 95.8969 102.781 87.4296 107.095C77.8035 112 65.2024 112 40 112H34.6C28.4394 112 25.3591 112 23.0061 110.801C20.9363 109.746 19.2535 108.064 18.1989 105.994C17 103.641 17 100.561 17 94.4V34.6Z" fill="white"/>
<path d="M26 54.2821C26 54.0202 26 53.8892 26.0022 53.7785C26.1211 47.8769 30.8769 43.1211 36.7785 43.0022C36.8892 43 37.0202 43 37.2821 43H56C72.5685 43 86 56.4315 86 73V73C86 89.5685 72.5685 103 56 103H37.2821C37.0202 103 36.8892 103 36.7785 102.998C30.8769 102.879 26.1211 98.1231 26.0022 92.2215C26 92.1108 26 91.9798 26 91.7179V54.2821Z" fill="black"/>
<circle cx="94" cy="36" r="12" fill="black"/>
<circle cx="100.5" cy="35.5" r="4.5" fill="white"/>
</svg>
