<svg width="200" height="200" viewBox="0 0 200 200" fill="none" xmlns="http://www.w3.org/2000/svg">
<path d="M22 50.9011C22 40.7847 22 35.7266 23.9688 31.8627C25.7005 28.4639 28.4639 25.7005 31.8627 23.9688C35.7266 22 40.7847 22 50.9011 22H149.099C159.215 22 164.273 22 168.137 23.9688C171.536 25.7005 174.299 28.4639 176.031 31.8627C178 35.7266 178 40.7847 178 50.9011V59.7684C178 101.153 178 121.846 169.946 137.653C162.861 151.557 151.557 162.861 137.653 169.946C121.846 178 101.153 178 59.7684 178H50.9011C40.7847 178 35.7266 178 31.8627 176.031C28.4639 174.299 25.7005 171.536 23.9688 168.137C22 164.273 22 159.215 22 149.099V50.9011Z" fill="#2C3E50"/>
<path d="M37 82.6154C37 82.1833 37 81.9672 37.0037 81.7845C37.1998 72.0468 45.0468 64.1998 54.7845 64.0037C54.9672 64 55.1833 64 55.6154 64H86.5C113.838 64 136 86.1619 136 113.5V113.5C136 140.838 113.838 163 86.5 163H55.6154C55.1833 163 54.9672 163 54.7845 162.996C45.0468 162.8 37.1998 154.953 37.0037 145.215C37 145.033 37 144.817 37 144.385V82.6154Z" fill="#FFCC00"/>
<path d="M168 53.5C168 64.2696 159.27 73 148.5 73C137.73 73 129 64.2696 129 53.5C129 42.7304 137.73 34 148.5 34C159.27 34 168 42.7304 168 53.5Z" fill="white"/>
<path d="M166 52.5C166 56.6421 162.866 60 159 60C155.134 60 152 56.6421 152 52.5C152 48.3579 155.134 45 159 45C162.866 45 166 48.3579 166 52.5Z" fill="#2C3E50"/>
</svg>
