<svg xmlns="http://www.w3.org/2000/svg" id="_图层_2" width="111" height="40" data-name="图层 2" viewBox="0 0 111 40"><g id="_图层_1-2" data-name="图层 1"><path d="M17.16 12.71h-6.49a3.7 3.7 0 0 0-3.64 3.64v12.98c.02.93.38 1.78.97 2.42.66.73 1.61 1.2 2.67 1.22h6.49a10.1 10.1 0 0 0 10.13-10.13c0-5.59-4.54-10.13-10.13-10.13M29.9 6.45c-2.23 0-4.03 1.8-4.03 4s1.8 4 4.03 4 4.03-1.79 4.03-4-1.8-4-4.03-4m3.5 4.01a1.54 1.54 0 0 1-3.08 0 1.54 1.54 0 0 1 3.08 0m49.58 20.07L82.9 30q-.15-.63-.54-.96a1.7 1.7 0 0 0-1.1-.34q-.75 0-1.18.38-.44.39-.62 1.08l-.08.36-.02.08h.01zm-11.24.49V31q-.01-.2-.07-.38a3 3 0 0 0-.32-.8q-.2-.33-.46-.54a2 2 0 0 0-1.12-.42q-.62 0-1.04.42c-.42.42-.48.65-.62 1.1a6 6 0 0 0-.2 1.44l.02.39.06.45q.05.32.14.6l.06.16.01.03.11.23.07.13.07.12q.15.23.32.39l.11.09.04.03.02.01.1.06.16.08.16.05.18.04.25.02q.39 0 .74-.16.36-.18.64-.54t.44-.9q.18-.53.18-1.28v-.14a4 4 0 0 0-.05-.66m16.72-14.84q.2-.66.2-1.38c0-.72-.05-.89-.17-1.27l-.05-.17a2.3 2.3 0 0 0-.62-1.04q-.4-.4-1-.4-.38 0-.74.18-.36.16-.64.52a3 3 0 0 0-.46.88q-.15.55-.16 1.3v.12q0 .6.12 1.04t.32.76a2 2 0 0 0 1 .82q.29.08.56.08.65 0 1.04-.4.42-.4.6-1.04M77.3 13a1.6 1.6 0 0 0-.54-.96q-.4-.34-1.1-.34c-.7 0-.89.13-1.18.38q-.44.39-.62 1.08l-.09.44 3.61-.07a3 3 0 0 0-.08-.53m-10.74 0a1.6 1.6 0 0 0-.54-.96q-.4-.34-1.1-.34c-.7 0-.89.13-1.18.38q-.44.39-.62 1.08-.06.21-.09.44l3.61-.07a3 3 0 0 0-.08-.53m-11.4 2.84q.09-.18.15-.4.06-.18.09-.37l.04-.19.01-.04.03-.19v-.04l.03-.23.04-.56v-.38a7 7 0 0 0-.21-1.88q-.22-.75-.64-1.2-.4-.45-1-.66-.59-.2-1.34-.2h-1.32v7.8h1.66q.75 0 1.4-.32.66-.31 1.06-1.14"/><path d="M108.41 19.04q.23-.6.38-1.23l.06-.28c.31-1.5.28-2.97-.22-4.33l-.09-.24a7 7 0 0 0-2.47-3 10 10 0 0 0-4.01-1.64 11 11 0 0 0-4.34-.07 6.7 6.7 0 0 0-4.07 2.64l-.01-.02-.01-.02a5.75 5.75 0 0 0-5.57-3.99q-.94 0-1.85.28h-6.89v.62l-.31-.17-.03-.02-.02-.01c-1.02-.5-2.15-.7-3.3-.7s-2.31.21-3.35.72q-1.17.56-2.04 1.53a6 6 0 0 0-2-1.52q-.02 0-.03-.02l-.02-.01c-1.02-.5-2.15-.7-3.3-.7s-2.31.21-3.35.72q-.8.39-1.45.95a7 7 0 0 0-3.01-2.98 10 10 0 0 0-3.77-1.01V4.5H45.5V19h-5.56q.08-3.14.06-7.25V9.93c0-.97 0-1.94-.07-2.76a8 8 0 0 0-.77-2.96 8 8 0 0 0-3.1-3.22l-.27-.15-.4-.18a8 8 0 0 0-2.56-.59C32.01 0 31.04 0 30.07 0H9.93c-.98 0-1.95 0-2.76.07C6.3.14 5.26.31 4.2.84A7.7 7.7 0 0 0 .84 4.21a8 8 0 0 0-.78 2.96C0 7.99 0 8.96 0 9.93v20.14c0 .98-.01 1.95.06 2.76.07.87.24 1.91.78 2.97a7.6 7.6 0 0 0 3.36 3.36c1.06.54 2.1.71 2.97.78l.83.04V40h100a3 3 0 0 0 3-3V22a3 3 0 0 0-2.59-2.96m-74.79 5.14v.02a5.6 5.6 0 0 0-1 2.9v.44l.01.46q.05.94.43 1.82a15 15 0 0 1-5.33 4.53C24.48 36 20.23 36 11.74 36H9.92Q8.78 36 8 35.98a5 5 0 0 1-1.98-.38 3.7 3.7 0 0 1-1.62-1.62c-.4-.79-.4-1.83-.4-3.9V9.93c0-2.07 0-3.11.4-3.9.36-.7.92-1.27 1.62-1.62q.15-.08.31-.13.47-.18 1.16-.23.29-.03.63-.03l.43-.01h1.37L30.07 4c2.07 0 3.11 0 3.9.41.7.35 1.27.92 1.62 1.62.41.79.41 1.83.41 3.9v1.82c0 4.65 0 8.02-.28 10.66a6 6 0 0 0-2.1 1.77m11.72 9.52v.03a4 4 0 0 1-.23.98q0 .06-.04.11-.08.18-.18.35-.1.18-.23.35l-.18.22-.2.19q-.2.2-.44.36-.24.18-.51.3-.27.15-.57.25-1.2.44-2.78.44-.36 0-.68-.02l-.57-.05h-.05l-.08-.01-.53-.09-.55-.14a5 5 0 0 1-1.74-.92 3.6 3.6 0 0 1-1.18-1.88l-.06-.27-.03-.2-.02-.08v-.03a6 6 0 0 1-.03-.88l1.71-.38 1.29-.28q.03.93.38 1.5.36.57.96.84t1.34.26l.44-.02h.02q.1 0 .2-.03h.01q.08 0 .15-.02l.24-.07.25-.1.14-.07.18-.12.15-.13q.09-.09.14-.18l.02-.02.02-.04v-.02l.05-.14.03-.15v-.09l-.01-.2-.02-.08-.02-.07h-.01l-.09-.2-.12-.15-.08-.08-.2-.15-.23-.14-.27-.13-.3-.12q-.63-.21-1.42-.44-.87-.24-1.72-.52-.3-.1-.57-.23l-.49-.24-.48-.27a3.5 3.5 0 0 1-1.14-1.14 3 3 0 0 1-.31-.74l-.02-.1-.06-.44q-.03-.22-.03-.46 0-.21.02-.41l.02-.2.03-.2.02-.08v-.02q.05-.22.12-.42t.15-.38l.04-.07q.09-.18.21-.35s.02-.03.03-.05q.3-.41.71-.73h.01l.01-.02.14-.09.15-.1.08-.06q.16-.11.36-.19l.06-.04.28-.13q.25-.12.54-.19l.42-.1q.18-.06.38-.08l.11-.02.36-.05.15-.01q.3-.03.62-.03h.06a7 7 0 0 1 3.31.81l.1.07.06.03q.14.08.24.17l.03.03.03.02q.07.03.13.1l.02.02.03.02.13.12.14.14.02.02.02.03q.06.04.07.08l.04.05h.01l.05.06.03.04q.11.12.2.27.09.13.15.28l.03.05.02.05q.08.15.12.31l.04.1.05.16q.06.2.08.4l.01.07q.03.22.03.44.02.26-.01.54v.1l-2.96.48q.01-.31-.03-.58l-.09-.48q-.15-.45-.44-.78a1 1 0 0 0-.28-.24l-.02-.02-.07-.04-.03-.02-.03-.01q-.02-.03-.03-.02h-.01l-.02-.02-.02-.02-.07-.03-.14-.06-.3-.09-.17-.04-.28-.04h-.29l-.47.02-.28.05-.15.04q-.08.01-.14.04l-.19.09q-.14.07-.24.16l-.11.1-.08.09q-.2.28-.2.64 0 .4.28.66l.02.02.02.02.17.14.25.14q.22.12.5.22.6.21 1.42.42.85.24 1.72.54a7 7 0 0 1 1.7.82l.06.04.19.14.07.06.03.02.05.04.06.06.02.02.11.11q.08.06.12.13l.04.04.03.04q.18.2.32.44l.06.11.04.08.03.07q.06.1.09.2l.01.03.05.16.07.22.01.07.01.05.03.17v.02q.03.1.03.19.03.24.03.51 0 .2-.02.38Zm7.24-4.66h-2.42v4.19l.01.05v.08l.01.05.01.05.05.23q.03.1.09.2l.04.06.01.02q.06.09.13.15.38.32.92.32.18 0 .38-.04s.04 0 .07 0l.13-.03q.3-.07.56-.22v2.82q-.62.19-1.1.22-.48.06-.84.06h-.23l-.1-.01-.25-.02q-.15 0-.3-.03l-.3-.06-.45-.11-.03-.01a4 4 0 0 1-.6-.29 2.3 2.3 0 0 1-.88-.91l-.05-.07-.1-.21-.13-.34-.07-.23-.06-.25-.07-.42-.04-.36-.01-.28-.01-.3v-4.38h-1.16v-2.04h.06q.1 0 .19-.03l.1-.01.07-.02.07-.02q.06 0 .1-.02l.06-.02.23-.07.13-.05.19-.08.04-.02.02-.01.22-.15.03-.02.1-.08h.01l.2-.22q.52-.67.64-2.04v-.04h1.9v2.42h2.42v2.6Zm.89-9.07h-.03l-.64.03h-5V6.8h4.42q2.34 0 3.82.78l.18.1q.2.1.36.23l.27.2.28.24a4 4 0 0 1 .61.68q.13.17.25.38.13.2.23.41l.16.37.16.47q.08.25.15.54.08.36.13.75l.05.45.04.39.01.49a10 10 0 0 1-.1 1.39v.02l-.01.12-.05.27-.1.52-.1.38q-.16.52-.37.95l-.17.33-.19.31q-.1.18-.23.33l-.16.19q-.46.55-1.02.91h-.01l-.21.14-.2.11q-.7.38-1.46.55l-.44.09q-.22.05-.44.06zM63.48 37h-2.76v-4.12h-.14a8 8 0 0 1-.54 2.52 3 3 0 0 1-1.16 1.42q-.74.46-1.82.46h-.31l-.04-.01h-.03l-.25-.03-.25-.04-.29-.08-.26-.1a3 3 0 0 1-.59-.35l-.24-.22-.16-.18-.06-.07-.08-.11a4 4 0 0 1-.57-1.35l-.08-.34-.06-.34-.06-.49q-.05-.54-.05-1.16v-5.96h3.24v6.28l.01.07v.04l.01.16.02.15.03.21q.04.21.1.36l.06.13.08.14q.09.12.19.2a1 1 0 0 0 .27.17l.21.06.14.03h.15q.44 0 .8-.22.37-.24.66-.7.28-.47.42-1.22.12-.56.15-1.3v-4.56h3.24v10.56Zm.26-16.83a5 5 0 0 1-1.62-.55q-.19-.1-.36-.22l-.12-.09-.27-.23-.09-.08-.3-.32a5 5 0 0 1-.9-1.72 8 8 0 0 1 .02-4.2q.15-.52.37-.97l.03-.04.08-.13.09-.18.11-.18.22-.34q.13-.17.29-.33a3 3 0 0 1 .62-.55l.1-.07.21-.14.12-.07.24-.12a5 5 0 0 1 2.34-.48h.33l.11.02.32.03h.06l.13.02a4 4 0 0 1 .77.17l.02.01q.3.1.58.23a4 4 0 0 1 1.56 1.3l.13.2v.02l.04.07.01.02.15.32q.11.2.19.42.15.42.22.89.18 1.1-.04 2.38l-1.23.02-5.31.08q.01.27.06.51.05.32.13.59l.13.34q.1.2.2.34.54.75 1.66.74.48 0 .8-.12t.52-.34q.2-.23.28-.56a3 3 0 0 0 .06-.76l2.96.16a3.8 3.8 0 0 1-.84 2.66l-.07.08h-.01l-.06.07q-.16.15-.34.29l-.22.16q-.33.21-.76.38l-.24.09-.12.03-.24.07-.26.06-.28.05-.19.02a5 5 0 0 1-1.01.06q-.37 0-.72-.03a5 5 0 0 1-.66-.08M74.99 37h-2.82v-3.26h-.14a6 6 0 0 1-.68 1.96 3 3 0 0 1-2.7 1.58h-.28l-.35-.05-.19-.04a3 3 0 0 1-.97-.36l-.27-.17-.16-.12-.15-.13q-.15-.12-.29-.28a5 5 0 0 1-1.01-1.86l-.05-.16-.13-.58-.06-.34-.05-.35-.05-.77-.01-.47q0-.31.02-.6v-.09l.01-.06.01-.18q0-.1.02-.17a3 3 0 0 1 .08-.65q.05-.32.12-.6l.01-.04a6 6 0 0 1 .43-1.1l.06-.11.09-.16q.08-.15.18-.28.03-.05.1-.11l.05-.06.18-.21.03-.03s.08-.09.12-.11l.04-.04.08-.08.21-.16q.89-.6 2.06-.6h.23a4 4 0 0 1 1.39.38 3 3 0 0 1 1.3 1.46q.1.16.14.33l.02.04.12.36.13.51.11.64h.18l-.2-1.34-.07-.54-.09-.74-.04-1.16V23h3.24zm.15-16.75a5 5 0 0 1-.66-.08 5 5 0 0 1-1.62-.55q-.19-.1-.36-.22l-.12-.09-.27-.23-.09-.08a3 3 0 0 1-.66-.86l-.09-.13-.09-.14-.04-.09-.16-.35q-.1-.23-.16-.47a8 8 0 0 1 .02-4.2q.14-.47.34-.89.06-.14.14-.26a4 4 0 0 1 .42-.69q.13-.17.29-.33a3 3 0 0 1 .62-.55l.09-.07.28-.17.07-.04.23-.12a5 5 0 0 1 2.34-.48H76l.12.02h.02l.29.03h.04l.09.02q.23.02.42.07l.4.1.02.01q.3.1.58.23a4 4 0 0 1 1.78 1.67q.13.22.21.45l.06.14a5 5 0 0 1 .25.98q.18 1.1-.04 2.38l-.92.02-3.9.06-1.72.02q.02.27.06.51.05.32.13.59l.13.34q.1.2.2.34.54.75 1.66.74.48 0 .8-.12t.52-.34q.2-.23.28-.56a3 3 0 0 0 .06-.76l2.96.16a3.8 3.8 0 0 1-.84 2.66l-.07.08h-.01l-.13.13-.26.22-.27.19q-.31.2-.72.36-.91.38-2.34.38-.37 0-.72-.03m10.82 14.37q-.19.7-.7 1.3l-.04.04-.1.11a4 4 0 0 1-1.67.95h-.04l-.21.06-.27.06-.29.05-.16.02-.21.02-.22.02-.59.02q-.37 0-.72-.03a5 5 0 0 1-.66-.08q-.63-.1-1.14-.31a4.2 4.2 0 0 1-1.95-1.63 5 5 0 0 1-.69-1.76l-.06-.37-.03-.3-.03-.33q-.03-.27-.02-.53l.02-.56.03-.38.05-.35.06-.36q.05-.27.12-.53t.17-.5.2-.46l.02-.04.21-.39.25-.37q.01-.04.05-.08.13-.17.29-.33.06-.09.16-.16l.16-.15q.14-.14.3-.24l.1-.07.21-.14.36-.19a5.3 5.3 0 0 1 2.79-.46h.02l.28.03h.06l.12.02.21.03.03.01.15.03a4 4 0 0 1 1 .34 4 4 0 0 1 1.56 1.3l.04.06.04.07.05.09.01.02q.08.12.14.25l.04.08.14.32.04.12.01.02.13.41a7 7 0 0 1 .18 1.62l-.02.25-.02.37-.01.07v.06q-.01.26-.07.51h-.62l-5.92.1v.06l.01.04.03.25v.04l.02.12q.02.16.06.31.01.15.07.28.05.19.13.34.09.2.2.34.54.74 1.66.74.47 0 .8-.12.31-.12.52-.34.2-.24.28-.56a3 3 0 0 0 .06-.76l2.08.11.88.05q.06.66-.14 1.36Zm.94-14.52-.21-.08-.25-.12a3 3 0 0 1-.8-.69l-.16-.21-.18-.26q-.44-.8-.62-2h-.18a21 21 0 0 1 .29 2.26v.2q.06.6.06 1.16v2.6h-3.24V9.44h2.84v3.26h.14q.23-1.18.66-1.96.45-.8 1.12-1.18.7-.4 1.68-.4h.31l.25.04q.13.01.25.04.24.04.47.13.19.06.37.15l.11.06.34.22a3.7 3.7 0 0 1 1.32 1.86q.46 1.22.46 3.02v.48l-.03.45-.04.43q-.07.63-.22 1.16l-.09.29-.14.37a5 5 0 0 1-.99 1.52 3 3 0 0 1-.75.53l-.02.01-.13.06q-.15.07-.33.12l-.16.05-.02.01q-.16.04-.33.06l-.15.02q-.24.04-.5.04-.18 0-.35-.02h-.03l-.12-.01-.35-.06zM97.12 37h-3.24v-6q0-.25-.03-.48l-.06-.32-.02-.1a2 2 0 0 0-.23-.6q-.33-.54-1.04-.54-.6 0-1.06.42a3 3 0 0 0-.72 1.36q-.04.12-.06.26l-.05.23-.04.25q-.04.26-.06.53-.03.24-.03.5-.02.36-.02.75V37h-3.24V26.44h2.74v4.3h.16q.12-1.56.52-2.56l.08-.18.02-.05.04-.08.15-.28.12-.19.13-.17q.11-.15.25-.28.17-.17.35-.29a3.3 3.3 0 0 1 1.88-.5h.21l.01.01h.05l.05.01q.11-.01.21.02h.13l.22.04.15.04.2.06h.01l.26.1q.16.06.31.16a2 2 0 0 1 .36.26h.01l.1.1.1.1.2.23.1.15.18.29.01.02.03.07q.05.08.08.17l.13.32.09.26.01.06.05.19.07.34q.05.23.07.47.06.5.06 1.06zm7.49-7.96h-2.42v4.19l.01.05.01.04v.04l.01.05.01.05q.01.12.05.23.03.1.09.2l.04.06.01.02q.06.09.13.15.38.32.92.32.28 0 .58-.08t.56-.22v2.82q-.63.19-1.1.22-.48.06-.84.06h-.23l-.1-.01-.25-.02q-.15 0-.29-.03l-.34-.06-.4-.11-.09-.03-.26-.11q-.16-.06-.3-.16a2 2 0 0 1-.73-.67q-.07-.09-.12-.19l-.14-.25-.15-.37-.15-.52q-.05-.22-.07-.43l-.04-.32-.01-.25-.01-.37v-4.38h-1.16v-2.04h.06l.21-.03h.09l.11-.04h.01l.15-.04a2.4 2.4 0 0 0 .88-.41l.1-.08h.01l.2-.22q.51-.67.64-2.04v-.04h1.9v2.42h2.42zm2.28-11.91-.1.45a9 9 0 0 1-.55 1.42l-.07.13q-.1.18-.21.33a.4.4 0 0 1-.11.15l-.12.17-.23.27a4 4 0 0 1-.77.65q-.26.18-.55.32l-.28.14-.31.12h-.03q-.31.11-.64.18l-.39.07-.29.03h-.09l-.12.01q-.25.03-.54.03-.97 0-2.1-.23l-.49-.11-.07-.02h-.01l-.71-.21-.53-.19a6 6 0 0 1-1.01-.49l-.01-.01-.44-.27q-.65-.48-1.1-1.07a5 5 0 0 1-.84-1.95v-.09l-.03-.2-.02-.21v-.05q.12-.87.12-1.82v-.14l.16-.62.02-.07.08-.24q.1-.33.23-.61l.18-.36.14-.25.01-.02q.21-.33.45-.62l.12-.14a4.7 4.7 0 0 1 2.51-1.4 9 9 0 0 1 3.52.07l.49.11.37.1.36.11.18.06.3.11a9 9 0 0 1 1.58.83q1.3.9 1.82 2.29l.06.18.02.06.08.31.07.39.04.34a6 6 0 0 1-.14 1.96Z"/><path d="M103.61 13.11a7 7 0 0 0-2.35-.87q-2.18-.45-3.37.19-1.19.63-1.58 2.53l-.04.23q-.3 1.74.5 2.72.15.2.36.36.14.14.31.24.16.12.34.21l.17.09.42.19q.63.24 1.42.41 1.49.3 2.5.12a3 3 0 0 0 .91-.29l.03-.02q.18-.09.35-.22h.01l.04-.04q.16-.12.31-.29.28-.32.48-.74l.07-.14.06-.15.02-.04.06-.18q.06-.14.09-.29l.04-.12.07-.3a4 4 0 0 0-.05-2.14 2.7 2.7 0 0 0-1.17-1.46m-.44 2.13q-.1.51-.53.83-.43.3-1.28.23v.06q.8.23.98.67.19.45.23.95l.09 1.02h-.19l-1.49-.31v-.95q.03-.48-.16-.69-.15-.24-.66-.34l-.34-.07-.35 1.74-1.57-.32 1.1-5.39 2.34.48a3 3 0 0 1 1.46.71q.55.52.37 1.38"/><path d="m101.25 14.38-.27-.1-.65-.13-.27 1.33.45.1.42.06q.22 0 .4-.08.2-.1.25-.4.08-.37-.06-.54a.5.5 0 0 0-.27-.24"/></g></svg>