<svg width="64" height="64" viewBox="0 0 64 64" fill="none" xmlns="http://www.w3.org/2000/svg">
<g clip-path="url(#clip0_303_1357)">
<g filter="url(#filter0_d_303_1357)">
<path d="M5 15.0042C5 11.5024 5 9.75151 5.6815 8.414C6.28096 7.23749 7.23749 6.28096 8.414 5.6815C9.75151 5 11.5024 5 15.0042 5H48.9958C52.4976 5 54.2485 5 55.586 5.6815C56.7625 6.28096 57.719 7.23749 58.3185 8.414C59 9.75151 59 11.5024 59 15.0042V18.0737C59 32.3992 59 39.562 56.2121 45.0337C53.7597 49.8466 49.8466 53.7597 45.0337 56.2121C39.562 59 32.3992 59 18.0737 59H15.0042C11.5024 59 9.75151 59 8.414 58.3185C7.23749 57.719 6.28096 56.7625 5.6815 55.586C5 54.2485 5 52.4976 5 48.9958V15.0042Z" fill="#2C3E50"/>
<path d="M48.9961 4C50.7302 4 52.0909 3.99961 53.1836 4.08887C54.288 4.1791 55.2069 4.36554 56.04 4.79004C57.4047 5.48537 58.5146 6.59529 59.21 7.95996C59.6345 8.79315 59.8209 9.71199 59.9111 10.8164C60.0004 11.9091 60 13.2698 60 15.0039V18.0732C60 25.2194 60.001 30.6396 59.6484 34.9551C59.2949 39.282 58.5811 42.5871 57.1035 45.4873C54.5553 50.4885 50.4885 54.5553 45.4873 57.1035C42.5871 58.5811 39.282 59.2949 34.9551 59.6484C30.6396 60.001 25.2194 60 18.0732 60H15.0039C13.2698 60 11.9091 60.0004 10.8164 59.9111C9.71199 59.8209 8.79315 59.6345 7.95996 59.21C6.59529 58.5146 5.48537 57.4047 4.79004 56.04C4.36554 55.2069 4.1791 54.288 4.08887 53.1836C3.99961 52.0909 4 50.7302 4 48.9961V15.0039C4 13.2698 3.99961 11.9091 4.08887 10.8164C4.1791 9.71199 4.36554 8.79315 4.79004 7.95996C5.48537 6.59529 6.59529 5.48537 7.95996 4.79004C8.79315 4.36554 9.71199 4.1791 10.8164 4.08887C11.9091 3.99961 13.2698 4 15.0039 4H48.9961Z" stroke="white" stroke-width="2"/>
</g>
<path d="M16.5449 20.6975H27.21C36.0977 20.6975 43.3027 27.9025 43.3027 36.7903C43.3027 45.678 36.0977 52.883 27.21 52.8831H16.5449C16.3911 52.8831 16.3288 52.8831 16.2783 52.8821C13.4525 52.8251 11.1752 50.5478 11.1182 47.7219C11.1171 47.6715 11.1172 47.6091 11.1172 47.4553V26.1252C11.1172 25.9714 11.1171 25.9091 11.1182 25.8586C11.1752 23.0328 13.4524 20.7555 16.2783 20.6985C16.3288 20.6975 16.3911 20.6975 16.5449 20.6975Z" fill="#FFCC00" stroke="white" stroke-width="2"/>
<path d="M48.7119 9.63721C52.1974 9.63734 55.0156 12.4393 55.0156 15.8872C55.0156 19.3351 52.1974 22.1371 48.7119 22.1372C45.2263 22.1372 42.4072 19.3352 42.4072 15.8872C42.4072 12.4392 45.2263 9.63721 48.7119 9.63721Z" fill="white" stroke="white"/>
<path d="M54.863 15.3971C54.863 16.8101 53.7176 17.9556 52.3046 17.9556C50.8916 17.9556 49.7461 16.8101 49.7461 15.3971C49.7461 13.9841 50.8916 12.8386 52.3046 12.8386C53.7176 12.8386 54.863 13.9841 54.863 15.3971Z" fill="#2C3E50"/>
</g>
<defs>
<filter id="filter0_d_303_1357" x="2" y="2" width="64" height="64" filterUnits="userSpaceOnUse" color-interpolation-filters="sRGB">
<feFlood flood-opacity="0" result="BackgroundImageFix"/>
<feColorMatrix in="SourceAlpha" type="matrix" values="0 0 0 0 0 0 0 0 0 0 0 0 0 0 0 0 0 0 127 0" result="hardAlpha"/>
<feOffset dx="2" dy="2"/>
<feGaussianBlur stdDeviation="1.5"/>
<feComposite in2="hardAlpha" operator="out"/>
<feColorMatrix type="matrix" values="0 0 0 0 0 0 0 0 0 0 0 0 0 0 0 0 0 0 0.25 0"/>
<feBlend mode="normal" in2="BackgroundImageFix" result="effect1_dropShadow_303_1357"/>
<feBlend mode="normal" in="SourceGraphic" in2="effect1_dropShadow_303_1357" result="shape"/>
</filter>
<clipPath id="clip0_303_1357">
<rect width="64" height="64" fill="white"/>
</clipPath>
</defs>
</svg>
