<?xml version="1.0" encoding="UTF-8"?>
<svg id="DSTU" xmlns="http://www.w3.org/2000/svg" version="1.1" viewBox="0 0 727 727">
  <!-- Generator: Adobe Illustrator 29.1.0, SVG Export Plug-In . SVG Version: 2.1.0 Build 142)  -->
  <path d="M633,112c-19.3,0-35,15.5-35,34.7s15.7,34.7,35,34.7,35-15.5,35-34.7-15.7-34.7-35-34.7ZM633,112c-19.3,0-35,15.5-35,34.7s15.7,34.7,35,34.7,35-15.5,35-34.7-15.7-34.7-35-34.7ZM633,112c-19.3,0-35,15.5-35,34.7s15.7,34.7,35,34.7,35-15.5,35-34.7-15.7-34.7-35-34.7ZM633,112c-19.3,0-35,15.5-35,34.7s15.7,34.7,35,34.7,35-15.5,35-34.7-15.7-34.7-35-34.7ZM717.8,46c-8.1-15.8-21-28.7-36.8-36.8C663,0,639.5,0,592.3,0H134.7C87.5,0,64,0,46,9.2c-15.8,8.1-28.7,21-36.8,36.8C0,64,0,87.5,0,134.7v457.6C0,639.4,0,663,9.2,681c8.1,15.8,21,28.7,36.8,36.8,18,9.2,41.6,9.2,88.7,9.2h41.3c192.9,0,289.3,0,363-37.5,64.8-33,117.5-85.7,150.5-150.5,37.5-73.7,37.5-170.1,37.5-363v-41.3c0-47.1,0-70.7-9.2-88.7ZM299,658.1h-143.6c-2,0-3,0-3.9,0-45.3-.9-81.8-37.4-82.7-82.7,0-.9,0-1.9,0-3.9v-287.2c0-2,0-3,0-3.9.9-45.3,37.4-81.8,82.7-82.7.8,0,1.8,0,3.9,0h143.6c127.1,0,230.1,103,230.1,230.1s-103,230.1-230.1,230.1ZM588.5,237.4c-50.6,0-91.6-40.7-91.6-90.9s41-90.9,91.6-90.9,91.6,40.7,91.6,90.9-41,90.9-91.6,90.9ZM598,146.7c0,19.2,15.7,34.7,35,34.7s35-15.5,35-34.7-15.7-34.7-35-34.7-35,15.5-35,34.7ZM633,112c-19.3,0-35,15.5-35,34.7s15.7,34.7,35,34.7,35-15.5,35-34.7-15.7-34.7-35-34.7ZM633,112c-19.3,0-35,15.5-35,34.7s15.7,34.7,35,34.7,35-15.5,35-34.7-15.7-34.7-35-34.7Z"/>
</svg>