<?xml version="1.0" encoding="UTF-8"?>
<svg id="_图层_1" data-name="图层_1" xmlns="http://www.w3.org/2000/svg" version="1.1" viewBox="0 0 58 54">
  <!-- Generator: Adobe Illustrator 29.1.0, SVG Export Plug-In . SVG Version: 2.1.0 Build 142)  -->
  <path d="M48.9,14.2c0-.9-.2-1.9-.8-3-.7-1.5-1.9-2.6-3.4-3.4-1.1-.5-2.1-.7-3-.8-.8,0-1.8,0-2.8,0h-20.1c-1,0-1.9,0-2.8,0-.9,0-1.9.2-3,.8-1.5.7-2.6,1.9-3.4,3.4-.5,1-.7,2.1-.8,3,0,.8,0,1.8,0,2.8v20.1c0,1,0,2,0,2.8,0,.9.2,1.9.8,3,.7,1.4,1.9,2.6,3.4,3.4,1,.5,2.1.7,3,.8.8,0,1.8,0,2.8,0h1.8c4.2,0,7.5,0,10.3-.2,2.8-.2,5.2-.7,7.5-1.9,3.6-1.8,6.5-4.8,8.4-8.4,1.2-2.3,1.7-4.7,1.9-7.5.2-2.7.2-6.1.2-10.3v-1.8c0-1,0-1.9,0-2.8ZM36.7,41.3c-1.3.6-2.8,1-4.6,1.3-1.7.2-3.6.3-6,.3-1.6,0-3.4,0-5.4,0h-1.8c-1.5,0-2.5,0-3.2-.2-.3,0-.5-.1-.7-.2-.7-.4-1.3-.9-1.6-1.6-.1-.2-.2-.5-.2-.7-.2-.7-.2-1.7-.2-3.2v-20.1c0-2.1,0-3.1.4-3.9.3-.7.9-1.3,1.6-1.6.8-.4,1.8-.4,3.9-.4h20.1c2.1,0,3.1,0,3.9.4.7.3,1.3.9,1.6,1.6,0,.2.2.3.2.5.2.7.2,1.7.2,3.4v.5h0v1.3c0,.8,0,1.6,0,2.4,0,.5,0,1,0,1.5,0,6-.3,9.3-1.6,12-1.5,2.8-3.8,5.2-6.6,6.6Z"/>
  <path d="M34.5,24.2c-.7-1-1.5-1.9-2.5-2.6-1.7-1.2-3.7-1.9-5.9-1.9h-6.5c-1.1,0-2,.5-2.7,1.2-.6.6-.9,1.5-1,2.4,0,0,0,0,0,.2v12.6c0,0,0,.1,0,.2,0,.2,0,.5,0,.7.1.6.5,1.2.9,1.7,0,0,.1.2.2.2.5.4,1,.7,1.7.9.2,0,.5,0,.7,0h6.5c1.8,0,3.4-.4,4.8-1.2,3.2-1.7,5.3-5.1,5.3-8.9s-.6-4-1.7-5.7h0Z"/>
  <path d="M42.5,15.6c-.2-.4-.5-.8-.8-1.1,0,0-.1-.1-.2-.2-.2-.2-.4-.3-.6-.4-.5-.3-1.1-.5-1.8-.5,0,0-.1,0-.2,0-1,0-2,.4-2.7,1-.2.2-.3.3-.5.5-.5.7-.8,1.5-.8,2.5s.1,1,.3,1.5c.2.5.5,1,1,1.4.3.3.7.5,1.1.7.5.2,1.1.4,1.7.4s1.4-.2,2-.5c0,0,0,0,.1,0,.6-.4,1.1-.9,1.4-1.5h0c.1-.2.2-.4.3-.6.1-.4.2-.8.2-1.3h0c0-.2,0-.4,0-.5,0-.5-.2-.9-.4-1.3ZM42.4,17.5c0,.5-.3,1-.7,1.3-.2.2-.5.2-.8.2-.9,0-1.5-.7-1.5-1.5h0c0-.8.7-1.5,1.5-1.5s0,0,.1,0c.6,0,1.1.5,1.3,1,0,.2,0,.3,0,.5h0Z"/>
</svg>