<?xml version="1.0" encoding="UTF-8"?>
<svg id="_图层_1" data-name="图层_1" xmlns="http://www.w3.org/2000/svg" version="1.1" viewBox="0 0 548 548">
  <path d="M541.1,34.6c-6.1-11.9-15.8-21.6-27.7-27.7-13.6-6.9-31.3-6.9-66.9-6.9H101.5c-35.5,0-53.3,0-66.9,6.9-11.9,6.1-21.6,15.8-27.7,27.7C0,48.2,0,66,0,101.5v345c0,35.5,0,53.3,6.9,66.9,6.1,11.9,15.8,21.6,27.7,27.7,13.6,6.9,31.3,6.9,66.9,6.9h31.2c145.4,0,218.1,0,273.6-28.3,48.8-24.9,88.6-64.6,113.4-113.4,28.3-55.5,28.3-128.2,28.3-273.6v-31.2c0-35.5,0-53.3-6.9-66.9ZM225,496h-107.9c-1.5,0-2.3,0-2.9,0-34-.7-61.5-28.1-62.1-62.1,0-.6,0-1.4,0-2.9v-215.9c0-1.5,0-2.3,0-2.9.7-34,28.1-61.5,62.1-62.1.6,0,1.4,0,2.9,0h107.9c95.5,0,173,77.5,173,173s-77.5,173-173,173ZM444,179c-38.1,0-69-31.1-69-69.5s30.9-69.5,69-69.5,69,31.1,69,69.5-30.9,69.5-69,69.5Z"/>
  <path d="M513,106.8c0,14.4-11.6,26-26,26s-26-11.6-26-26,11.6-26,26-26,26,11.6,26,26Z"/>
</svg>

